<svg width="16" height="16" viewBox="0 0 16 16" fill="none" xmlns="http://www.w3.org/2000/svg">
<path d="M10.3892 7.99995C10.3892 9.31995 9.32251 10.3866 8.00251 10.3866C6.68251 10.3866 5.61584 9.31995 5.61584 7.99995C5.61584 6.67995 6.68251 5.61328 8.00251 5.61328C9.32251 5.61328 10.3892 6.67995 10.3892 7.99995Z" stroke="#6366F1" stroke-width="1.5" stroke-linecap="round" stroke-linejoin="round"/>
<path d="M8.00252 13.5133C10.3559 13.5133 12.5492 12.1266 14.0759 9.72665C14.6759 8.78665 14.6759 7.20665 14.0759 6.26665C12.5492 3.86665 10.3559 2.47998 8.00252 2.47998C5.64919 2.47998 3.45585 3.86665 1.92919 6.26665C1.32919 7.20665 1.32919 8.78665 1.92919 9.72665C3.45585 12.1266 5.64919 13.5133 8.00252 13.5133Z" stroke="#6366F1" stroke-width="1.5" stroke-linecap="round" stroke-linejoin="round"/>
</svg>
