<svg width="20" height="20" viewBox="0 0 20 20" fill="none" xmlns="http://www.w3.org/2000/svg">
<path d="M18.0251 12.2916C18.0251 13.0333 17.8167 13.7333 17.4501 14.3333C16.7667 15.4833 15.5084 16.2499 14.0667 16.2499C12.6251 16.2499 11.3667 15.4749 10.6834 14.3333C10.3167 13.7416 10.1084 13.0333 10.1084 12.2916C10.1084 10.1083 11.8834 8.33325 14.0667 8.33325C16.2501 8.33325 18.0251 10.1083 18.0251 12.2916Z" stroke="#6366F1" stroke-width="1.5" stroke-miterlimit="10" stroke-linecap="round" stroke-linejoin="round"/>
<path d="M15.5501 12.2749H12.5918" stroke="#6366F1" stroke-width="1.5" stroke-miterlimit="10" stroke-linecap="round" stroke-linejoin="round"/>
<path d="M14.0664 10.8333V13.7916" stroke="#6366F1" stroke-width="1.5" stroke-miterlimit="10" stroke-linecap="round" stroke-linejoin="round"/>
<path d="M17.2421 3.3501V5.20007C17.2421 5.87507 16.8171 6.71675 16.4005 7.14175L14.9338 8.43341C14.6588 8.36674 14.3671 8.33342 14.0671 8.33342C11.8838 8.33342 10.1088 10.1084 10.1088 12.2917C10.1088 13.0334 10.3171 13.7334 10.6838 14.3334C10.9921 14.8501 11.4171 15.2917 11.9338 15.6084V15.8918C11.9338 16.4001 11.6005 17.0751 11.1755 17.3251L10.0005 18.0834C8.90879 18.7584 7.39212 18.0001 7.39212 16.6501V12.1918C7.39212 11.6001 7.05046 10.8418 6.71712 10.4251L3.51712 7.05839C3.10046 6.63339 2.75879 5.87509 2.75879 5.37509V3.43341C2.75879 2.42508 3.51712 1.66675 4.44212 1.66675H15.5588C16.4838 1.66675 17.2421 2.4251 17.2421 3.3501Z" stroke="#6366F1" stroke-width="1.5" stroke-miterlimit="10" stroke-linecap="round" stroke-linejoin="round"/>
</svg>
